<?xml version="1.0" standalone="no"?>
<!DOCTYPE svg PUBLIC "-//W3C//DTD SVG 20010904//EN"
 "http://www.w3.org/TR/2001/REC-SVG-20010904/DTD/svg10.dtd">
<svg version="1.0" xmlns="http://www.w3.org/2000/svg"
 width="700.000000pt" height="700.000000pt" viewBox="0 0 700.000000 700.000000"
 preserveAspectRatio="xMidYMid meet">
<metadata>
Created by potrace 1.14, written by Peter Selinger 2001-2017
</metadata>
<g transform="translate(0.000000,700.000000) scale(0.100000,-0.100000)"
fill="#000000" stroke="none">
<path d="M3378 6415 c-2 -1 -48 -5 -103 -9 -128 -8 -163 -13 -315 -41 -133
-25 -133 -25 -225 -50 -237 -63 -589 -216 -753 -326 -24 -16 -45 -29 -47 -29
-7 0 -178 -122 -235 -167 -347 -278 -607 -596 -802 -978 -100 -195 -209 -496
-244 -670 -2 -11 -6 -31 -9 -45 -8 -37 -13 -63 -19 -106 -4 -22 -11 -66 -16
-99 -23 -146 -31 -442 -17 -630 27 -354 134 -739 293 -1056 77 -155 232 -407
256 -417 4 -2 8 -8 8 -13 0 -5 6 -17 14 -26 257 -321 458 -508 747 -696 346
-226 785 -392 1164 -442 28 -4 61 -9 75 -11 140 -23 634 -22 702 1 7 2 36 6
63 9 65 7 186 31 288 57 45 11 89 23 97 25 8 1 28 7 45 12 l30 8 0 467 c0 376
-2 467 -13 467 -7 0 -29 -8 -50 -19 -95 -47 -292 -109 -437 -135 -44 -9 -93
-18 -110 -21 -16 -4 -120 -8 -230 -10 -156 -2 -226 1 -321 15 -113 17 -238 43
-274 57 -8 3 -23 8 -33 10 -40 7 -218 78 -302 120 -225 111 -372 218 -555 402
-325 327 -534 762 -578 1206 -9 90 -9 382 0 460 17 143 59 322 103 440 14 39
27 75 29 80 11 38 88 197 129 265 256 435 653 759 1122 916 59 20 115 37 125
39 10 2 60 12 111 24 133 28 220 36 411 36 l167 0 52 135 c91 237 212 467 330
626 22 30 36 54 32 55 -4 0 -15 2 -23 4 -60 13 -237 41 -320 50 -54 7 -356 15
-362 10z"/>
<path d="M5135 6404 c-164 -29 -297 -103 -448 -251 -263 -256 -508 -773 -583
-1233 -16 -98 -23 -334 -11 -405 33 -212 114 -400 238 -562 55 -70 180 -187
258 -240 34 -24 64 -43 67 -43 2 0 21 -10 42 -23 41 -25 206 -94 237 -99 20
-3 20 -12 22 -1458 1 -800 2 -1467 2 -1481 l1 -26 290 0 290 0 0 46 c0 25 2
691 3 1479 l2 1433 73 25 c229 77 441 235 582 432 151 213 220 443 214 713 -2
96 -7 144 -29 274 -13 77 -44 191 -87 320 -123 368 -308 685 -507 869 -25 23
-52 48 -60 56 -25 24 -121 85 -176 112 -132 66 -279 88 -420 62z"/>
<path d="M3340 4949 c-354 -44 -649 -190 -893 -444 -165 -170 -329 -467 -362
-654 -3 -19 -8 -37 -10 -40 -3 -6 -11 -51 -24 -148 -11 -75 -6 -317 8 -393 7
-36 21 -99 32 -140 12 -41 22 -82 24 -90 2 -8 21 -57 43 -109 205 -474 631
-800 1142 -874 120 -18 328 -14 448 7 209 38 429 133 617 268 6 5 10 155 10
415 l0 408 -55 34 c-408 255 -696 677 -791 1161 -19 98 -22 144 -21 315 1 110
3 220 4 245 l3 45 -60 0 c-33 0 -85 -3 -115 -6z"/>
</g>
</svg>
